<svg width="19" height="18" viewBox="0 0 19 18" fill="none" xmlns="http://www.w3.org/2000/svg">
<path d="M9.01963 0.854603C9.1001 0.692781 9.22401 0.556645 9.37745 0.461487C9.53088 0.366328 9.70776 0.315918 9.88821 0.315918C10.0687 0.315918 10.2455 0.366328 10.399 0.461487C10.5524 0.556645 10.6763 0.692781 10.7568 0.854603L13.0091 5.4278L18.0409 6.15999C18.2198 6.18615 18.3878 6.26186 18.5261 6.37859C18.6643 6.49532 18.7673 6.64842 18.8233 6.82064C18.8794 6.99286 18.8863 7.17734 18.8433 7.35328C18.8003 7.52922 18.7091 7.68964 18.58 7.81643L14.9379 11.3754L15.8005 16.3987C15.8314 16.5775 15.8117 16.7615 15.7436 16.9297C15.6755 17.0979 15.5618 17.2437 15.4153 17.3505C15.2688 17.4573 15.0954 17.5209 14.9147 17.534C14.734 17.5472 14.5532 17.5094 14.3928 17.4249L9.88821 15.0243L5.38358 17.4249C5.22321 17.5094 5.04245 17.5472 4.86175 17.534C4.68105 17.5209 4.50764 17.4573 4.36115 17.3505C4.21465 17.2437 4.10092 17.0979 4.03284 16.9297C3.96475 16.7615 3.94502 16.5775 3.97589 16.3987L4.83848 11.3754L1.19644 7.81643C1.06732 7.68964 0.976113 7.52922 0.933116 7.35328C0.890118 7.17734 0.897035 6.99286 0.953086 6.82064C1.00914 6.64842 1.11209 6.49532 1.25035 6.37859C1.3886 6.26186 1.55665 6.18615 1.73556 6.15999L6.76732 5.4278L9.01963 0.854603Z" fill="white"/>
</svg>
