<svg width="17" height="21" viewBox="0 0 17 21" fill="none" xmlns="http://www.w3.org/2000/svg">
<path d="M16.5804 5.28207V17.2369C16.5804 19.0518 15.1601 20.7513 13.3453 20.7513H7.24818C6.35784 20.7513 5.53302 20.1815 4.91619 19.5547C4.91619 19.5547 0.820603 13.2752 0.300642 12.3564C-0.609647 10.7509 0.747951 9.73949 1.94742 10.5814C2.09558 10.6854 4.21389 13.1769 4.21389 13.1769V4.04841C4.21389 3.88612 4.24585 3.72542 4.30796 3.57549C4.37006 3.42555 4.46109 3.28932 4.57584 3.17457C4.6906 3.05981 4.82683 2.96878 4.97677 2.90668C5.1267 2.84457 5.2874 2.81261 5.44969 2.81261C5.61197 2.81261 5.77267 2.84457 5.9226 2.90668C6.07254 2.96878 6.20877 3.05981 6.32353 3.17457C6.43828 3.28932 6.52931 3.42555 6.59141 3.57549C6.65352 3.72542 6.68548 3.88612 6.68548 4.04841V9.81784H7.51315V1.98708C7.51315 1.65933 7.64335 1.345 7.87511 1.11324C8.10686 0.881482 8.42119 0.751282 8.74895 0.751282C9.0767 0.751282 9.39103 0.881482 9.62279 1.11324C9.85455 1.345 9.98475 1.65933 9.98475 1.98708V9.81784H10.8096V2.81047C10.8096 2.64818 10.8415 2.48749 10.9036 2.33755C10.9657 2.18762 11.0568 2.05138 11.1715 1.93663C11.2863 1.82188 11.4225 1.73085 11.5724 1.66874C11.7224 1.60664 11.8831 1.57467 12.0454 1.57467C12.2076 1.57467 12.3683 1.60664 12.5183 1.66874C12.6682 1.73085 12.8044 1.82188 12.9192 1.93663C13.034 2.05138 13.125 2.18762 13.1871 2.33755C13.2492 2.48749 13.2812 2.64818 13.2812 2.81047V9.81784H14.106V5.28207C14.106 4.59971 14.6587 4.04841 15.3439 4.04841C16.0291 4.04841 16.5804 4.59971 16.5804 5.28207Z" fill="#91959B"/>
</svg>
